<svg width="773" height="162" viewBox="0 0 773 162" fill="none" xmlns="http://www.w3.org/2000/svg">
    <path d="M512.588 144.688H529.668V108.688C534.792 112.63 540.31 114.469 546.748 114.469C556.208 114.469 565.274 110.265 570.924 103.696C575.916 97.9146 578.938 90.0314 578.938 81.3599C578.938 62.5717 565.011 48.1191 547.668 48.1191C540.442 48.1191 534.004 50.4841 529.011 54.5571V49.433H512.588V144.688ZM529.668 71.7687C533.216 67.0388 538.865 63.8855 545.435 63.8855C555.42 63.8855 561.858 72.1629 561.858 81.3599C561.858 91.3453 554.632 98.703 545.04 98.703C538.602 98.703 532.953 95.5497 529.668 90.8198V71.7687Z" fill="black"/>
    <path d="M636.091 90.8198C632.807 95.5497 627.157 98.703 620.719 98.703C611.128 98.703 603.902 91.3453 603.902 81.3599C603.902 72.1629 610.339 63.8855 620.325 63.8855C626.894 63.8855 632.544 67.0388 636.091 71.7687V90.8198ZM653.171 49.433H636.748V54.5571C631.755 50.4841 625.318 48.1191 618.091 48.1191C600.748 48.1191 586.821 62.5717 586.821 81.3599C586.821 90.0314 589.975 97.9146 594.967 103.696C600.617 110.265 609.551 114.469 619.011 114.469C625.449 114.469 631.493 112.499 636.748 108.031V113.155H653.171V49.433Z" fill="black"/>
    <path d="M663.976 105.929C671.465 111.447 680.793 114.469 689.596 114.469C702.998 114.469 714.954 106.98 714.954 94.7614C714.954 72.6884 684.078 75.9731 684.078 67.6957C684.078 64.4111 688.02 62.5717 692.75 62.5717C697.348 62.5717 701.684 64.5425 704.969 66.9074L712.983 54.5571C708.779 51.2724 699.713 48.1191 691.436 48.1191C678.823 48.1191 666.998 55.7396 666.998 67.9585C666.998 88.4548 697.874 85.0388 697.874 94.63C697.874 97.7832 694.326 100.017 689.728 100.017C683.29 100.017 676.589 97.6519 672.253 93.7103L663.976 105.929Z" fill="black"/>
    <path d="M721.139 105.929C728.628 111.447 737.957 114.469 746.76 114.469C760.161 114.469 772.117 106.98 772.117 94.7614C772.117 72.6884 741.241 75.9731 741.241 67.6957C741.241 64.4111 745.183 62.5717 749.913 62.5717C754.512 62.5717 758.847 64.5425 762.132 66.9074L770.146 54.5571C765.942 51.2724 756.876 48.1191 748.599 48.1191C735.986 48.1191 724.161 55.7396 724.161 67.9585C724.161 88.4548 755.037 85.0388 755.037 94.63C755.037 97.7832 751.49 100.017 746.891 100.017C740.453 100.017 733.752 97.6519 729.417 93.7103L721.139 105.929Z" fill="black"/>
    <path d="M19.704 81C19.704 46.9762 47.5764 19.44 81.9018 19.44C105.475 19.44 126.014 32.4186 136.572 51.616C139.168 56.3342 145.148 58.0836 149.93 55.5232C154.713 52.9628 156.486 47.0623 153.891 42.344C140.034 17.1497 113.006 0 81.9018 0C36.6432 0 0 36.2901 0 81C0 125.71 36.6432 162 81.9018 162C113.006 162 140.034 144.85 153.891 119.656C156.486 114.938 154.713 109.037 149.93 106.477C145.148 103.916 139.168 105.666 136.572 110.384C126.014 129.581 105.475 142.56 81.9018 142.56C47.5764 142.56 19.704 115.024 19.704 81Z" fill="#33B236"/>
    <path d="M96.8778 71.28C96.8778 75.5981 94.9751 79.4778 91.9518 82.1475V105.3H72.2479V82.1475C69.2245 79.4778 67.3219 75.5981 67.3219 71.28C67.3219 63.2277 73.9382 56.7 82.0998 56.7C90.2615 56.7 96.8778 63.2277 96.8778 71.28Z" fill="#33B236"/>
    <path d="M256.811 89.956C254.053 94.1032 248.536 98.2504 241.574 98.2504C231.196 98.2504 223.971 90.9928 223.971 81.1432C223.971 71.5529 231.327 63.9065 241.179 63.9065C247.353 63.9065 252.476 67.0169 255.892 71.4233L267.977 60.9257C262.066 53.4089 252.214 48.3545 241.179 48.3545C221.738 48.3545 206.895 62.8697 206.895 81.1432C206.895 99.2872 221.344 113.802 241.048 113.802C253.002 113.802 262.46 109.526 269.947 99.676L256.811 89.956Z" fill="black"/>
    <path d="M297.538 49.6505H280.461V112.506H297.538V49.6505ZM277.834 27.3593C277.834 33.4505 282.826 38.1161 289 38.1161C295.173 38.1161 300.165 33.4505 300.165 27.3593C300.165 21.2681 295.173 16.6025 289 16.6025C282.826 16.6025 277.834 21.2681 277.834 27.3593Z" fill="black"/>
    <path d="M323.846 49.6505H306.112L335.406 112.506H347.228L376.521 49.6505H358.788L341.317 88.012L323.846 49.6505Z" fill="black"/>
    <path d="M402.092 49.6505H385.015V112.506H402.092V49.6505ZM382.388 27.3593C382.388 33.4505 387.38 38.1161 393.554 38.1161C399.728 38.1161 404.719 33.4505 404.719 27.3593C404.719 21.2681 399.728 16.6025 393.554 16.6025C387.38 16.6025 382.388 21.2681 382.388 27.3593Z" fill="black"/>
    <path d="M463.867 89.956C461.109 94.1032 455.592 98.2504 448.63 98.2504C438.252 98.2504 431.027 90.9928 431.027 81.1432C431.027 71.5529 438.383 63.9065 448.235 63.9065C454.409 63.9065 459.532 67.0169 462.948 71.4233L475.033 60.9257C469.122 53.4089 459.27 48.3545 448.235 48.3545C428.794 48.3545 413.95 62.8697 413.95 81.1432C413.95 99.2872 428.4 113.802 448.104 113.802C460.058 113.802 469.516 109.526 477.003 99.676L463.867 89.956Z" fill="black"/>
</svg>
