<?xml version="1.0" encoding="UTF-8" standalone="no"?>
<svg width="112px" height="40px" viewBox="0 0 112 40" version="1.1" xmlns="http://www.w3.org/2000/svg" xmlns:xlink="http://www.w3.org/1999/xlink" xmlns:sketch="http://www.bohemiancoding.com/sketch/ns">
    <!-- Generator: Sketch 3.5.2 (25235) - http://www.bohemiancoding.com/sketch -->
    <title>Logo</title>
    <desc>Created with Sketch.</desc>
    <defs></defs>
    <g id="Desktop-Interior-Product-Views" stroke="none" stroke-width="1" fill="none" fill-rule="evenodd" sketch:type="MSPage">
        <g id="ID-Protection---History" sketch:type="MSArtboardGroup" transform="translate(-32.000000, -16.000000)">
            <g id="Header" sketch:type="MSLayerGroup" transform="translate(32.000000, -6.000000)">
                <g id="Logo" transform="translate(0.000000, 22.000000)" sketch:type="MSShapeGroup">
                    <path d="M20.0784314,35 C11.774902,35 5.01960784,28.2710937 5.01960784,20 C5.01960784,11.7289062 11.774902,5 20.0784314,5 C26.8545882,5 32.598902,9.4815625 34.4832941,15.625 L39.6737255,15.625 C37.6704314,6.68375 29.6585098,0 20.0784314,0 C8.98933333,0 0,8.954375 0,20 C0,31.045625 8.98933333,40 20.0784314,40 C29.6585098,40 37.6704314,33.31625 39.6737255,24.375 L34.4832941,24.375 C32.598902,30.5184375 26.8545882,35 20.0784314,35" id="Fill-1" fill="#3AB03E"></path>
                    <path d="M24.7843137,17.3437656 C24.7843137,14.7548594 22.6774902,12.6562656 20.0784314,12.6562656 C17.4793725,12.6562656 15.372549,14.7548594 15.372549,17.3437656 C15.372549,19.1943906 16.4495686,20.7940781 18.0130196,21.5561094 L18.0130196,27.3437656 L22.1438431,27.3437656 L22.1438431,21.5561094 C23.7072941,20.7940781 24.7843137,19.1943906 24.7843137,17.3437656" id="Fill-3" fill="#3AB03E"></path>
                    <path d="M60.6347765,23.5677812 C60.1497569,24.0727812 59.5798745,24.4735625 58.9411294,24.7584062 C58.3058353,25.0423125 57.6161098,25.1860625 56.8909333,25.1860625 C56.1646588,25.1860625 55.4799529,25.0487187 54.8553255,24.7774687 C54.2286588,24.5054375 53.6774431,24.1252812 53.2168941,23.647625 C52.753051,23.1668437 52.3776784,22.6010625 52.1016,21.9660625 C51.8272471,21.3368437 51.6881098,20.6530937 51.6881098,19.9337187 C51.6881098,19.213875 51.8275608,18.523875 52.1022275,17.8823125 C52.3784627,17.2365312 52.7536784,16.6654375 53.2168941,16.1849687 C53.6783843,15.7066875 54.2297569,15.3265312 54.8553255,15.0549687 C55.4801098,14.7837187 56.1649725,14.6460625 56.8909333,14.6460625 C57.6142275,14.6460625 58.2975216,14.7898125 58.9216784,15.0729375 C59.5510118,15.3590312 60.1172863,15.7499687 60.6048157,16.2346562 L60.8248941,16.4537187 L63.2766588,14.0495 L63.049051,13.8268437 C62.252502,13.0480937 61.3223059,12.4246562 60.2840314,11.9734062 C59.2415216,11.52075 58.0998745,11.2912187 56.8909333,11.2912187 C55.6826196,11.2912187 54.5350118,11.5237187 53.4801098,11.9823125 C52.4299137,12.4393437 51.4997176,13.061375 50.7150902,13.8310625 C49.9277961,14.60325 49.2962667,15.5252812 48.8380706,16.5710625 C48.3776784,17.62075 48.1442667,18.7521562 48.1442667,19.9337187 C48.1442667,21.1160625 48.3778353,22.242 48.8385412,23.2798125 C49.297051,24.3141875 49.9276392,25.2352812 50.7132078,26.0171562 C51.4990902,26.800125 52.4308549,27.42325 53.4829333,27.8687187 C54.5367373,28.3149687 55.6834039,28.5412187 56.8909333,28.5412187 C58.0990902,28.5412187 59.2462275,28.312 60.300502,27.8599687 C61.350698,27.4090312 62.2873255,26.7849687 63.0840314,26.0054375 L63.3097569,25.7846562 L60.8567373,23.3365312 L60.6347765,23.5677812 Z" id="Fill-5" fill="#2C2C2C"></path>
                    <path d="M67.5851608,3.73120312 C66.9644549,3.73120312 66.4298667,3.94339062 65.9966118,4.36182812 C65.5602196,4.78307812 65.3390431,5.31198437 65.3390431,5.93370312 C65.3390431,6.55604687 65.5603765,7.08495312 65.996298,7.50542187 C66.4292392,7.92385937 66.9638275,8.13620312 67.5851608,8.13620312 C68.2058667,8.13620312 68.7404549,7.92401562 69.1738667,7.50557812 C69.6102588,7.08417187 69.8314353,6.55542187 69.8314353,5.93370312 C69.8314353,5.31260937 69.6102588,4.78385937 69.1737098,4.36167187 C68.7396706,3.94323437 68.2052392,3.73120312 67.5851608,3.73120312" id="Fill-7" fill="#2C2C2C"></path>
                    <path d="M65.830902,28.01625 L69.3396078,28.01625 L69.3396078,11.81625 L65.830902,11.81625 L65.830902,28.01625 Z" id="Fill-9" fill="#2C2C2C"></path>
                    <path d="M80.0600471,21.8037031 L75.2512627,11.8162031 L71.5634196,11.8162031 L79.8126745,28.5412031 L80.309302,28.5412031 L88.5220078,11.8162031 L84.8344784,11.8162031 L80.0600471,21.8037031 Z" id="Fill-11" fill="#2C2C2C"></path>
                    <path d="M92.5216,3.74857812 C91.9008941,3.74857812 91.3663059,3.96076562 90.933051,4.37920312 C90.4966588,4.80045312 90.2754824,5.32935937 90.2754824,5.95107812 C90.2754824,6.57342187 90.4968157,7.10232812 90.9327373,7.52279687 C91.3656784,7.94123437 91.9002667,8.15357812 92.5216,8.15357812 C93.1423059,8.15357812 93.6768941,7.94139062 94.1103059,7.52295312 C94.546698,7.10154687 94.7678745,6.57279687 94.7678745,5.95107812 C94.7678745,5.32998437 94.546698,4.80123437 94.110149,4.37904687 C93.6761098,3.96060937 93.1416784,3.74857812 92.5216,3.74857812" id="Fill-12" fill="#2C2C2C"></path>
                    <path d="M90.7673725,28.0335937 L94.2760784,28.0335937 L94.2760784,11.8335937 L90.7673725,11.8335937 L90.7673725,28.0335937 Z" id="Fill-13" fill="#2C2C2C"></path>
                    <path d="M109.498322,23.3364531 L109.276361,23.5677031 C108.791341,24.0728594 108.221459,24.4734844 107.582714,24.7584844 C106.94742,25.0422344 106.257694,25.1861406 105.532518,25.1861406 C104.806243,25.1861406 104.121537,25.0486406 103.49691,24.7775469 C102.870243,24.5053594 102.319027,24.1253594 101.858478,23.6475469 C101.394635,23.1667656 101.019263,22.6011406 100.743184,21.9659844 C100.468831,21.3369219 100.329694,20.6530156 100.329694,19.9337969 C100.329694,19.2139531 100.468988,18.5237969 100.743812,17.8822344 C101.020047,17.2364531 101.395263,16.6653594 101.858478,16.1848906 C102.319969,15.7066094 102.871341,15.3266094 103.49691,15.0550469 C104.121694,14.7836406 104.806557,14.6461406 105.532518,14.6461406 C106.255812,14.6461406 106.939106,14.7897344 107.563263,15.0728594 C108.192596,15.3591094 108.758871,15.7498906 109.2464,16.2347344 L109.466478,16.4536406 L111.918243,14.0494219 L111.690635,13.8267656 C110.894086,13.0481719 109.96389,12.4245781 108.925616,11.9734844 C107.883106,11.5206719 106.741459,11.2911406 105.532518,11.2911406 C104.324204,11.2911406 103.176596,11.5236406 102.121694,11.9822344 C101.071498,12.4394219 100.141302,13.0614531 99.3566745,13.8309844 C98.5693804,14.6033281 97.937851,15.5252031 97.4796549,16.5709844 C97.0192627,17.6206719 96.785851,18.7522344 96.785851,19.9337969 C96.785851,21.1161406 97.0194196,22.2419219 97.4801255,23.2798906 C97.9386353,24.3142656 98.5692235,25.2352031 99.3547922,26.0170781 C100.140675,26.8002031 101.072439,27.4231719 102.124518,27.8687969 C103.178322,28.3148906 104.324988,28.5412969 105.532518,28.5412969 C106.740675,28.5412969 107.887812,28.3120781 108.942086,27.8598906 C109.992282,27.4089531 110.92891,26.7848906 111.725616,26.0053594 L111.951341,25.7845781 L109.498322,23.3364531 Z" id="Fill-14" fill="#2C2C2C"></path>
                </g>
            </g>
        </g>
    </g>
</svg>